<svg xmlns="http://www.w3.org/2000/svg" version="1.1" xmlns:xlink="http://www.w3.org/1999/xlink" xmlns:svgjs="http://svgjs.dev/svgjs" width="2000" height="2250" viewBox="0 0 2000 2250"><g transform="matrix(1,0,0,1,0,0)"><svg viewBox="0 0 320 360" data-background-color="#051726" preserveAspectRatio="xMidYMid meet" height="2250" width="2000" xmlns="http://www.w3.org/2000/svg" xmlns:xlink="http://www.w3.org/1999/xlink"><g id="tight-bounds" transform="matrix(1,0,0,1,0,0)"><svg viewBox="0 0 320 360" height="360" width="320"><g><svg></svg></g><g><svg viewBox="0 0 320 360" height="360" width="320"><g><path xmlns="http://www.w3.org/2000/svg" d="M297.491 100.645c-12.426-21.51-112.674-79.355-137.491-79.355-24.817 0-125.028 57.845-137.491 79.355-11.591 20.02-11.591 138.726 0 158.746 12.463 21.474 112.674 79.319 137.491 79.319 24.817 0 125.064-57.845 137.491-79.355 11.591-20.02 11.591-138.69 0-158.71zM309.481 93.705c-14.461-24.998-119.469-86.295-149.481-86.295-30.012 0-135.02 61.297-149.481 86.295-14.025 24.199-14.025 148.391 0 172.59 14.461 24.998 119.469 86.295 149.481 86.295 30.012 0 135.02-61.297 149.481-86.259 14.025-24.235 14.025-148.427 0-172.626zM300.906 261.353c-12.753 22.055-115.472 81.317-140.906 81.318-25.434 0-128.153-59.298-140.906-81.354-11.881-20.529-11.881-142.178 0-162.707 12.753-22.019 115.472-81.281 140.906-81.281 25.434 0 128.153 59.298 140.906 81.318 11.881 20.529 11.881 142.178 0 162.706z" fill="#ffffff" fill-rule="nonzero" stroke="none" stroke-width="1" stroke-linecap="butt" stroke-linejoin="miter" stroke-miterlimit="10" stroke-dasharray="" stroke-dashoffset="0" font-family="none" font-weight="none" font-size="none" text-anchor="none" style="mix-blend-mode: normal" data-fill-palette-color="tertiary"></path></g><g transform="matrix(1,0,0,1,48,126.3105516169768)"><svg viewBox="0 0 224 107.37889676604641" height="107.37889676604641" width="224"><g><svg viewBox="0 0 224 107.37889676604641" height="107.37889676604641" width="224"><g><svg viewBox="0 0 224 107.37889676604641" height="107.37889676604641" width="224"><g transform="matrix(1,0,0,1,0,64.90179034748066)"><svg viewBox="0 0 224 42.47710641856575" height="42.47710641856575" width="224"><g><svg viewBox="0 0 224 42.47710641856575" height="42.47710641856575" width="224"><g><svg viewBox="0 0 224 42.47710641856575" height="42.47710641856575" width="224"><g transform="matrix(1,0,0,1,0,0)"><svg width="224" viewBox="4.849999904632568 -37.099998474121094 239.12998962402344 45.349998474121094" height="42.47710641856575" data-palette-color="#051726"><path d="M31.35-0.95L31.35-0.95Q31.5-0.6 31.33-0.3 31.15 0 30.8 0L30.8 0 27.15 0Q26.6 0 26.35-0.6L26.35-0.6 19.9-16.35Q19.65-16.9 18.7-16.9L18.7-16.9 10.25-16.9Q9.9-16.9 9.78-16.75 9.65-16.6 9.65-16.35L9.65-16.35 9.65-0.8Q9.65 0 8.8 0L8.8 0 5.55 0Q5.15 0 5-0.18 4.85-0.35 4.85-0.65L4.85-0.65 4.85-36.4Q4.85-37.1 5.45-37.1L5.45-37.1 19.4-37.1Q25.3-37.1 28.58-34.68 31.85-32.25 31.85-27.5L31.85-27.5Q31.85-24.65 30.75-22.68 29.65-20.7 27.98-19.53 26.3-18.35 24.55-17.8L24.55-17.8Q24.15-17.75 24.35-17.3L24.35-17.3 31.35-0.95ZM18-20.4L18-20.4Q22.4-20.4 24.63-22 26.85-23.6 26.85-27.05L26.85-27.05Q26.85-30.4 24.88-32 22.9-33.6 19.15-33.6L19.15-33.6 10.35-33.6Q9.65-33.6 9.65-33.05L9.65-33.05 9.65-21.05Q9.65-20.4 10.1-20.4L10.1-20.4 18-20.4ZM39.6-11.6L39.6-11.6Q39.6-9.15 40.77-7.13 41.95-5.1 43.92-3.9 45.9-2.7 48.35-2.7L48.35-2.7Q50.85-2.7 52.8-3.73 54.75-4.75 56.15-6.85L56.15-6.85Q56.35-7.05 56.47-7.08 56.6-7.1 56.85-7L56.85-7 58.95-5.95Q59.4-5.7 59.05-5.25L59.05-5.25Q57.7-3.25 56.07-1.98 54.45-0.7 52.45-0.1 50.45 0.5 47.95 0.5L47.95 0.5Q44.25 0.5 41.4-1.2 38.55-2.9 36.9-5.95 35.25-9 35.25-13L35.25-13Q35.25-17.35 36.92-20.48 38.6-23.6 41.47-25.3 44.35-27 47.9-27L47.9-27Q51.55-27 54.25-25.4 56.95-23.8 58.45-20.75 59.95-17.7 59.95-13.4L59.95-13.4Q59.95-13.05 59.87-12.7 59.8-12.35 59.2-12.35L59.2-12.35 40.05-12.35Q39.85-12.35 39.72-12.13 39.6-11.9 39.6-11.6L39.6-11.6ZM39.7-15.1L54.9-15.1Q55.45-15.1 55.6-15.23 55.75-15.35 55.75-15.8L55.75-15.8Q55.75-17.95 54.82-19.83 53.9-21.7 52.17-22.85 50.45-24 48-24L48-24Q45.3-24 43.45-22.73 41.6-21.45 40.65-19.4 39.7-17.35 39.7-15.1L39.7-15.1ZM69.3-26.5L69.3-26.5Q70-26.5 70-25.75L70-25.75 70-23.65Q70-23.25 70.17-23.23 70.34-23.2 70.65-23.45L70.65-23.45Q71.2-24.05 72.15-24.88 73.09-25.7 74.62-26.35 76.15-27 78.5-27L78.5-27Q81.55-27 84.02-25.53 86.5-24.05 87.97-21.1 89.45-18.15 89.45-13.65L89.45-13.65Q89.45-9.15 88-6 86.55-2.85 83.97-1.18 81.4 0.5 77.95 0.5L77.95 0.5Q75.65 0.5 73.87-0.23 72.09-0.95 70.84-2L70.84-2Q70.4-2.4 70.22-2.33 70.05-2.25 70.05-1.7L70.05-1.7 70.05 7.6Q70.05 8.25 69.5 8.25L69.5 8.25 66.4 8.25Q65.84 8.25 65.84 7.6L65.84 7.6 65.84-25.7Q65.84-26.15 66.02-26.33 66.2-26.5 66.65-26.5L66.65-26.5 69.3-26.5ZM70.05-5.85L70.05-5.85Q71.59-4.35 73.22-3.45 74.84-2.55 76.84-2.55L76.84-2.55Q79.25-2.55 81.12-3.8 83-5.05 84.07-7.5 85.15-9.95 85.15-13.6L85.15-13.6Q85.15-17.25 84.05-19.55 82.95-21.85 81.12-22.9 79.3-23.95 77.09-23.95L77.09-23.95Q75.05-23.95 73.45-23.05 71.84-22.15 70.95-20.83 70.05-19.5 70.05-18.2L70.05-18.2 70.05-5.85ZM110.94-3.2L110.94-3.2Q109.09-1.4 106.92-0.45 104.74 0.5 102.04 0.5L102.04 0.5Q98.14 0.5 95.92-1.5 93.69-3.5 93.69-6.75L93.69-6.75Q93.69-9.4 95.19-11.33 96.69-13.25 99.64-14.38 102.59-15.5 106.89-15.75L106.89-15.75 110.79-16.05Q111.09-16.1 111.34-16.25 111.59-16.4 111.59-16.8L111.59-16.8 111.59-18.15Q111.59-20.85 109.92-22.43 108.24-24 105.39-24L105.39-24Q103.19-24 101.42-23 99.64-22 98.24-20L98.24-20Q98.04-19.75 97.92-19.68 97.79-19.6 97.49-19.7L97.49-19.7 94.79-20.6Q94.64-20.7 94.57-20.85 94.49-21 94.69-21.4L94.69-21.4Q96.19-24 98.92-25.5 101.64-27 105.59-27L105.59-27Q108.94-27 111.17-25.98 113.39-24.95 114.52-23.03 115.64-21.1 115.64-18.45L115.64-18.45 115.64-0.75Q115.64-0.3 115.49-0.15 115.34 0 114.99 0L114.99 0 112.44 0Q112.09 0 111.94-0.23 111.79-0.45 111.74-0.8L111.74-0.8 111.69-3.1Q111.54-3.8 110.94-3.2L110.94-3.2ZM111.59-12.7L111.59-12.7Q111.59-13.55 110.89-13.5L110.89-13.5 107.59-13.2Q105.29-13.1 103.49-12.63 101.69-12.15 100.44-11.4 99.19-10.65 98.54-9.63 97.89-8.6 97.89-7.25L97.89-7.25Q97.89-5.05 99.42-3.83 100.94-2.6 103.54-2.6L103.54-2.6Q105.14-2.6 106.62-3.18 108.09-3.75 109.19-4.65L109.19-4.65Q110.34-5.6 110.97-6.6 111.59-7.6 111.59-8.55L111.59-8.55 111.59-12.7ZM127.29-25.85L127.29-0.85Q127.29-0.35 127.12-0.18 126.94 0 126.39 0L126.39 0 123.84 0Q123.39 0 123.24-0.15 123.09-0.3 123.09-0.7L123.09-0.7 123.09-25.8Q123.09-26.5 123.69-26.5L123.69-26.5 126.74-26.5Q127.29-26.5 127.29-25.85L127.29-25.85ZM127.49-36.35L127.49-32.2Q127.49-31.25 126.59-31.25L126.59-31.25 123.69-31.25Q123.24-31.25 123.09-31.48 122.94-31.7 122.94-32.1L122.94-32.1 122.94-36.3Q122.94-37.1 123.64-37.1L123.64-37.1 126.79-37.1Q127.49-37.1 127.49-36.35L127.49-36.35ZM135.74 0L135.74 0Q135.39 0 135.21-0.18 135.04-0.35 135.04-0.65L135.04-0.65 135.04-25.85Q135.04-26.5 135.59-26.5L135.59-26.5 138.49-26.5Q139.04-26.5 139.04-25.95L139.04-25.95 139.04-22.7Q139.04-22.4 139.19-22.35 139.34-22.3 139.59-22.55L139.59-22.55Q140.89-24.1 142.16-25.08 143.44-26.05 144.74-26.53 146.04-27 147.34-27L147.34-27Q149.09-27 149.09-26.35L149.09-26.35 149.09-23.35Q149.09-22.85 148.64-22.95L148.64-22.95Q148.19-23 147.61-23.05 147.04-23.1 146.39-23.1L146.39-23.1Q145.29-23.1 144.04-22.63 142.79-22.15 141.71-21.3 140.64-20.45 139.94-19.4 139.24-18.35 139.24-17.3L139.24-17.3 139.24-0.75Q139.24 0 138.49 0L138.49 0 135.74 0ZM153.09 0L153.09 0Q152.78 0 152.66-0.23 152.53-0.45 152.64-0.85L152.64-0.85 165.59-36.4Q165.74-36.75 165.94-36.93 166.14-37.1 166.59-37.1L166.59-37.1 170.49-37.1Q171.39-37.1 171.64-36.35L171.64-36.35 184.44-0.85Q184.54-0.55 184.41-0.28 184.29 0 183.94 0L183.94 0 180.39 0Q179.79 0 179.59-0.5L179.59-0.5 176.14-10.2Q176.04-10.4 175.94-10.5 175.84-10.6 175.54-10.6L175.54-10.6 160.99-10.6Q160.53-10.6 160.39-10.2L160.39-10.2 156.84-0.45Q156.78-0.25 156.61-0.13 156.44 0 156.09 0L156.09 0 153.09 0ZM162.14-14.4L174.24-14.4Q174.84-14.4 174.64-15.05L174.64-15.05 168.64-31.5Q168.44-31.95 168.26-31.95 168.09-31.95 167.94-31.5L167.94-31.5 161.84-14.95Q161.59-14.4 162.14-14.4L162.14-14.4ZM193.98-26.5L193.98-26.5Q194.68-26.5 194.68-25.75L194.68-25.75 194.68-23.65Q194.68-23.25 194.86-23.23 195.03-23.2 195.33-23.45L195.33-23.45Q195.88-24.05 196.83-24.88 197.78-25.7 199.31-26.35 200.83-27 203.18-27L203.18-27Q206.23-27 208.71-25.53 211.18-24.05 212.66-21.1 214.13-18.15 214.13-13.65L214.13-13.65Q214.13-9.15 212.68-6 211.23-2.85 208.66-1.18 206.08 0.5 202.63 0.5L202.63 0.5Q200.33 0.5 198.56-0.23 196.78-0.95 195.53-2L195.53-2Q195.08-2.4 194.91-2.33 194.73-2.25 194.73-1.7L194.73-1.7 194.73 7.6Q194.73 8.25 194.18 8.25L194.18 8.25 191.08 8.25Q190.53 8.25 190.53 7.6L190.53 7.6 190.53-25.7Q190.53-26.15 190.71-26.33 190.88-26.5 191.33-26.5L191.33-26.5 193.98-26.5ZM194.73-5.85L194.73-5.85Q196.28-4.35 197.91-3.45 199.53-2.55 201.53-2.55L201.53-2.55Q203.93-2.55 205.81-3.8 207.68-5.05 208.76-7.5 209.83-9.95 209.83-13.6L209.83-13.6Q209.83-17.25 208.73-19.55 207.63-21.85 205.81-22.9 203.98-23.95 201.78-23.95L201.78-23.95Q199.73-23.95 198.13-23.05 196.53-22.15 195.63-20.83 194.73-19.5 194.73-18.2L194.73-18.2 194.73-5.85ZM223.83-26.5L223.83-26.5Q224.53-26.5 224.53-25.75L224.53-25.75 224.53-23.65Q224.53-23.25 224.71-23.23 224.88-23.2 225.18-23.45L225.18-23.45Q225.73-24.05 226.68-24.88 227.63-25.7 229.16-26.35 230.68-27 233.03-27L233.03-27Q236.08-27 238.56-25.53 241.03-24.05 242.5-21.1 243.98-18.15 243.98-13.65L243.98-13.65Q243.98-9.15 242.53-6 241.08-2.85 238.5-1.18 235.93 0.5 232.48 0.5L232.48 0.5Q230.18 0.5 228.41-0.23 226.63-0.95 225.38-2L225.38-2Q224.93-2.4 224.75-2.33 224.58-2.25 224.58-1.7L224.58-1.7 224.58 7.6Q224.58 8.25 224.03 8.25L224.03 8.25 220.93 8.25Q220.38 8.25 220.38 7.6L220.38 7.6 220.38-25.7Q220.38-26.15 220.56-26.33 220.73-26.5 221.18-26.5L221.18-26.5 223.83-26.5ZM224.58-5.85L224.58-5.85Q226.13-4.35 227.75-3.45 229.38-2.55 231.38-2.55L231.38-2.55Q233.78-2.55 235.66-3.8 237.53-5.05 238.61-7.5 239.68-9.95 239.68-13.6L239.68-13.6Q239.68-17.25 238.58-19.55 237.48-21.85 235.66-22.9 233.83-23.95 231.63-23.95L231.63-23.95Q229.58-23.95 227.98-23.05 226.38-22.15 225.48-20.83 224.58-19.5 224.58-18.2L224.58-18.2 224.58-5.85Z" opacity="1" transform="matrix(1,0,0,1,0,0)" fill="#051726" class="undefined-text-0" data-fill-palette-color="quaternary" id="text-0"></path></svg></g></svg></g></svg></g></svg></g><g transform="matrix(1,0,0,1,86.4649091294298,0)"><svg viewBox="0 0 51.0701817411404 58.703361070457866" height="58.703361070457866" width="51.0701817411404"><g><svg xmlns="http://www.w3.org/2000/svg" xmlns:xlink="http://www.w3.org/1999/xlink" version="1.1" x="0" y="0" viewBox="7.389475345611572 1.7684178352355957 75.22154235839844 86.46449279785156" enable-background="new 0 0 90 90" xml:space="preserve" height="58.703361070457866" width="51.0701817411404" class="icon-icon-0" data-fill-palette-color="quaternary" id="icon-0"><path d="M42.593 53.812c-1.264-0.408-2.375-1.234-3.137-2.37-1.837-2.757-1.095-6.488 1.646-8.328l0.935-0.624-0.317-0.478-5.275-3.655c-1.239-0.854-2.932-0.546-3.787 0.69-0.858 1.237-0.551 2.931 0.685 3.788-2.336 0.423-4.517 1.738-5.979 3.849L9.042 73.132c-2.919 4.216-1.87 10.005 2.35 12.928l0.384 0.269c4.219 2.919 10.006 1.872 12.928-2.348l18.326-26.447c0.153-0.224 0.252-0.466 0.384-0.698C43.022 55.857 42.728 54.849 42.593 53.812zM15.241 77.1c-0.41 0.595-1.229 0.739-1.825 0.332-0.595-0.413-0.742-1.231-0.329-1.825l17.355-25.05c0.41-0.596 1.229-0.746 1.824-0.332 0.592 0.413 0.739 1.229 0.333 1.825L15.241 77.1zM38.323 56.017L20.968 81.064c-0.413 0.599-1.229 0.743-1.824 0.331-0.595-0.413-0.743-1.229-0.33-1.82l17.355-25.055c0.413-0.593 1.226-0.742 1.822-0.33C38.585 54.604 38.733 55.42 38.323 56.017z" fill="#051726" data-fill-palette-color="quaternary"></path><path d="M58.025 39.032c-0.836-1.247-2.525-1.587-3.774-0.751l-11.325 7.555c-1.245 0.838-1.582 2.527-0.75 3.779 0.839 1.248 2.529 1.586 3.777 0.752-0.466 2.328-0.044 4.839 1.384 6.975l17.864 26.757c2.849 4.269 8.616 5.418 12.884 2.569l0.394-0.262c4.267-2.849 5.416-8.62 2.567-12.887L63.183 46.761c-1.425-2.133-3.579-3.487-5.909-3.951C58.521 41.974 58.858 40.284 58.025 39.032zM71.168 79.79c0.403 0.602 0.24 1.417-0.36 1.821-0.603 0.4-1.415 0.237-1.818-0.363L52.068 55.901c-0.403-0.602-0.239-1.416 0.362-1.816 0.602-0.402 1.415-0.238 1.82 0.362L71.168 79.79zM76.962 75.923c0.4 0.603 0.24 1.419-0.361 1.821-0.603 0.398-1.415 0.237-1.818-0.363l-16.92-25.348c-0.403-0.602-0.244-1.417 0.361-1.815 0.602-0.4 1.415-0.239 1.818 0.363L76.962 75.923z" fill="#051726" data-fill-palette-color="quaternary"></path><path d="M31.611 20.969l13.216 19.795 4.007-2.677L35.622 18.292l-0.675-6.637c-0.016-0.14-0.073-0.272-0.172-0.377l-8.621-9.298c-0.224-0.237-0.583-0.281-0.848-0.101l-4.901 3.273c-0.269 0.176-0.365 0.523-0.23 0.816L25.456 17.5c0.058 0.129 0.16 0.233 0.285 0.303L31.611 20.969z" fill="#051726" data-fill-palette-color="quaternary"></path><path d="M50.379 34.494L67.945 9.4c0.631-0.899 1.203-2.98 0.813-4.153l-3.495 4.961c-0.23 0.326-0.688 0.406-1.015 0.176-0.326-0.232-0.407-0.687-0.176-1.015l3.498-4.962c-1.238 0.031-3.003 1.266-3.636 2.166L47.459 30.117 50.379 34.494z" fill="#051726" data-fill-palette-color="quaternary"></path></svg></g></svg></g><g></g></svg></g></svg></g></svg></g></svg></g><defs></defs></svg><rect width="320" height="360" fill="none" stroke="none" visibility="hidden"></rect></g></svg></g></svg>