<svg width="140" height="150" viewBox="0 0 140 150" xmlns="http://www.w3.org/2000/svg"><title>FabFilter</title><g fill="none" fill-rule="evenodd"><path fill="#0772AD" d="M0 0h140v150H0z"/><path d="M28.915 73.342c-1.02 0-1.846.83-1.846 1.857V91.45c0 1.027.825 1.858 1.845 1.858s1.847-.83 1.847-1.858V75.2c0-1.027-.826-1.858-1.847-1.858M28.915 46.39c1.02 0 1.847-.83 1.847-1.857V28.28c0-1.036-.826-1.867-1.847-1.867-1.02 0-1.846.83-1.846 1.858v16.263c0 1.027.825 1.858 1.845 1.858M44.15 75.2c0-1.027-.825-1.858-1.846-1.858-1.02 0-1.846.83-1.846 1.858v16.252c0 1.027.826 1.858 1.846 1.858s1.847-.83 1.847-1.858V75.2z" fill="#000"/><path d="M70.454 46.39c1.02 0 1.847-.83 1.847-1.857V28.28c0-1.036-.825-1.867-1.846-1.867-1.01 0-1.846.83-1.846 1.858v16.263c0 1.027.835 1.858 1.846 1.858" fill="#FFF"/><path d="M110.62 46.39c1.02 0 1.847-.83 1.847-1.857V28.28c0-1.036-.826-1.867-1.847-1.867-1.02 0-1.846.83-1.846 1.858v16.263c0 1.027.826 1.858 1.846 1.858M90.774 26.414c-5.483 0-9.928 4.47-9.928 9.988 0 5.517 4.445 9.99 9.928 9.99 5.475 0 9.92-4.473 9.92-9.99s-4.445-9.988-9.92-9.988m0 16.728c-3.702 0-6.7-3.015-6.7-6.74 0-3.715 2.998-6.73 6.7-6.73 3.693 0 6.69 3.015 6.69 6.73 0 3.725-2.997 6.74-6.69 6.74M36.533 50.107c-5.483 0-9.928 4.47-9.928 9.988s4.445 9.99 9.928 9.99c5.484 0 9.92-4.472 9.92-9.99 0-5.517-4.436-9.988-9.92-9.988m0 16.728c-3.702 0-6.7-3.015-6.7-6.74 0-3.715 2.998-6.73 6.7-6.73 3.693 0 6.69 3.015 6.69 6.73 0 3.725-2.997 6.74-6.69 6.74M81.533 51.964v16.262c0 1.027.835 1.858 1.856 1.858 1.01 0 1.845-.83 1.845-1.858V51.973c0-1.036-.835-1.867-1.846-1.867-1.022 0-1.857.83-1.857 1.858M58.458 36.402c0-5.517-4.445-9.988-9.928-9.988-5.474 0-9.92 4.47-9.92 9.988s4.446 9.99 9.92 9.99c5.483 0 9.928-4.472 9.928-9.99m-9.928 6.74c-3.693 0-6.69-3.015-6.69-6.74 0-3.715 2.997-6.73 6.69-6.73 3.702 0 6.7 3.015 6.7 6.73 0 3.725-2.998 6.74-6.7 6.74M90.542 73.342c-5.483 0-9.927 4.47-9.927 9.98 0 5.516 4.444 9.988 9.927 9.988 5.475 0 9.92-4.472 9.92-9.99 0-5.507-4.445-9.978-9.92-9.978m0 16.72c-3.702 0-6.7-3.016-6.7-6.74 0-3.716 2.998-6.732 6.7-6.732 3.693 0 6.69 3.016 6.69 6.73 0 3.726-2.997 6.74-6.69 6.74" fill="#000"/><path d="M70.454 50.107c-1.01 0-1.846.83-1.846 1.857v16.262c0 1.027.835 1.858 1.846 1.858 1.02 0 1.847-.83 1.847-1.858V51.974c0-1.036-.825-1.867-1.846-1.867" fill="#FFF"/><path d="M110.62 73.342c-1.02 0-1.846.83-1.846 1.857V91.45c0 1.027.826 1.858 1.846 1.858s1.847-.83 1.847-1.858V75.2c0-1.027-.826-1.858-1.847-1.858" fill="#000"/><path d="M61.92 73.342c-5.485 0-9.93 4.47-9.93 9.98 0 5.516 4.445 9.988 9.93 9.988 5.482 0 9.926-4.472 9.926-9.99 0-5.507-4.444-9.978-9.927-9.978m0 16.72c-3.694 0-6.69-3.016-6.69-6.74 0-3.716 2.996-6.732 6.69-6.732 3.7 0 6.698 3.016 6.698 6.73 0 3.726-2.997 6.74-6.7 6.74" fill="#FFF"/><path d="M57.994 51.964c0-1.027-.826-1.858-1.846-1.858s-1.847.83-1.847 1.858v16.262c0 1.027.827 1.858 1.848 1.858 1.02 0 1.846-.83 1.846-1.858V51.963zM103.003 50.107c-5.484 0-9.928 4.47-9.928 9.988s4.444 9.99 9.928 9.99c5.483 0 9.928-4.472 9.928-9.99 0-5.517-4.444-9.988-9.927-9.988m0 16.728c-3.693 0-6.69-3.015-6.69-6.74 0-3.715 2.997-6.73 6.69-6.73 3.693 0 6.69 3.015 6.69 6.73 0 3.725-2.997 6.74-6.69 6.74" fill="#000"/><path d="M28.387 116.07c0 .587-.344.95-.882.95-.547 0-.89-.363-.89-.95v-8.44h-.724c-.593 0-.89-.28-.89-.765 0-.495.297-.775.89-.775h.724v-2.54c0-1.568 1.067-2.342 2.357-2.342h.548c.464 0 1.012.29 1.012.774 0 .486-.306.775-.965.775h-.446c-.548 0-.733.262-.733.71v2.623H29.5c.584 0 .89.28.89.775 0 .485-.306.765-.89.765h-1.113v8.44zM43.455 116.154c0 .625-.483.868-.826.868-.363 0-.827-.243-.827-.868v-.757h-.046c-.76 1.102-1.772 1.625-2.923 1.625-3.034 0-4.732-2.66-4.732-5.527 0-2.866 1.698-5.526 4.732-5.526 1.225 0 2.097.522 2.923 1.436h.046v-.57c0-.624.464-.867.826-.867.342 0 .825.242.825.867v9.317zm-4.62-.673c2.18 0 2.94-2.155 2.94-3.985s-.76-3.986-2.94-3.986c-2.18 0-2.95 2.156-2.95 3.985 0 1.83.77 3.986 2.95 3.986zM48.53 102.17c0-.59.343-.963.89-.963.548 0 .89.374.89.962v5.264h.038c.464-.672 1.457-1.466 2.867-1.466 2.914 0 4.584 2.66 4.584 5.527 0 2.866-1.67 5.526-4.585 5.526-1.41 0-2.356-.503-2.867-1.483h-.037v.532c0 .587-.342.95-.89.95-.547 0-.89-.363-.89-.95v-13.9zm4.546 13.31c2.18 0 2.95-2.156 2.95-3.985 0-1.83-.77-3.986-2.95-3.986s-2.95 2.155-2.95 3.985.77 3.986 2.95 3.986zM64.86 116.07c0 .587-.344.95-.89.95-.548 0-.892-.363-.892-.95v-8.44h-.723c-.585 0-.89-.28-.89-.765 0-.495.305-.775.89-.775h.723v-2.54c0-1.568 1.077-2.342 2.366-2.342h.548c.464 0 1.002.29 1.002.774 0 .486-.297.775-.965.775h-.446c-.548 0-.724.262-.724.71v2.623h1.104c.584 0 .89.28.89.775 0 .485-.306.765-.89.765H64.86v8.44zM72.7 102.31c.613 0 1.095.485 1.095 1.1 0 .608-.482 1.093-1.095 1.093-.603 0-1.085-.485-1.085-1.092 0-.615.482-1.1 1.085-1.1zm.89 13.76c0 .588-.342.952-.89.952-.538 0-.88-.364-.88-.953v-9.15c0-.587.342-.95.88-.95.548 0 .89.363.89.95v9.15zM81.18 116.07c0 .587-.343.95-.89.95-.548 0-.89-.363-.89-.95v-13.9c0-.59.342-.962.89-.962.547 0 .89.373.89.96v13.9zM87.48 103.756c0-.597.344-.96.89-.96.548 0 .892.363.892.96v2.334h.723c.585 0 .89.28.89.775 0 .485-.305.765-.89.765h-.723v8.44c0 .587-.344.95-.89.95-.548 0-.892-.363-.892-.95v-8.44h-.723c-.585 0-.89-.28-.89-.765 0-.495.305-.775.89-.775h.723v-2.334zM96.582 112.186c0 1.848 1.18 3.295 3.174 3.295 2.366 0 2.97-1.464 3.637-1.464.324 0 .64.28.64.793 0 .867-2.2 2.212-4.296 2.212-3.433 0-4.927-2.66-4.927-5.527 0-2.922 1.82-5.526 4.825-5.526 2.932 0 4.62 2.66 4.62 5.264 0 .625-.222.952-.983.952h-6.69zm5.9-1.344c0-1.54-.89-3.333-2.847-3.333-2.2-.076-2.988 1.69-3.053 3.332h5.9zM108.876 106.92c0-.587.343-.95.89-.95.54 0 .882.363.882.95v.916h.047c.4-.83 1.392-1.867 2.42-1.867.623 0 .994.4.994.914 0 .504-.372.83-1.114.97-1.05.187-2.348.98-2.348 3.072v5.143c0 .588-.343.952-.88.952-.55 0-.892-.364-.892-.953v-9.15zM27.885 125.49c.54 0 1.31.288 1.31.7 0 .148-.094.27-.298.27-.28 0-.39-.402-1.012-.402-.37 0-.695.168-.695.504 0 .69 2.106.616 2.106 1.765 0 .83-.705 1.223-1.438 1.223-.826 0-1.485-.42-1.485-.757 0-.177.13-.298.27-.298.287 0 .528.485 1.242.485.474 0 .76-.26.76-.532 0-.775-2.105-.737-2.105-1.84 0-.727.677-1.12 1.345-1.12M32.6 125.49c1.112 0 1.734.98 1.734 2.034 0 1.045-.622 2.026-1.735 2.026-1.115 0-1.736-.98-1.736-2.026 0-1.055.62-2.035 1.735-2.035m0 3.49c.797 0 1.084-.784 1.084-1.456 0-.672-.287-1.466-1.085-1.466-.8 0-1.087.794-1.087 1.466 0 .672.288 1.456 1.086 1.456M36.997 129.204c0 .215-.13.346-.325.346-.204 0-.324-.13-.324-.346v-3.1h-.27c-.213 0-.324-.102-.324-.288 0-.178.11-.28.325-.28h.268v-.934c0-.58.39-.86.862-.86h.205c.167 0 .37.104.37.28 0 .188-.11.29-.36.29h-.16c-.203 0-.268.094-.268.262v.96h.408c.214 0 .325.104.325.282 0 .186-.11.29-.325.29h-.408v3.098zM39.372 124.677c0-.215.13-.355.334-.355.195 0 .325.14.325.355v.858h.27c.213 0 .324.103.324.28 0 .187-.11.29-.324.29h-.27v3.1c0 .214-.13.345-.324.345-.204 0-.334-.13-.334-.346v-3.1h-.26c-.223 0-.334-.102-.334-.29 0-.176.11-.28.334-.28h.26v-.857zM41.85 126.04c-.037-.103-.056-.187-.056-.262 0-.12.093-.29.315-.29.14 0 .27.057.36.337l.836 2.707h.02l.815-2.605c.094-.29.15-.438.39-.438.233 0 .298.148.382.437l.825 2.605h.02l.834-2.707c.094-.28.224-.336.363-.336.222 0 .315.167.315.288 0 .075-.028.16-.055.26l-1.077 3.166c-.093.26-.195.345-.38.345-.176 0-.288-.085-.37-.346l-.846-2.68h-.018l-.844 2.68c-.084.26-.195.345-.372.345-.185 0-.287-.085-.38-.346l-1.076-3.165zM52.083 129.232c0 .233-.176.317-.296.317-.14 0-.307-.085-.307-.318v-.28h-.018c-.28.4-.65.597-1.077.597-1.113 0-1.735-.98-1.735-2.026 0-1.055.622-2.035 1.735-2.035.455 0 .77.195 1.077.53h.018v-.205c0-.233.167-.326.307-.326.12 0 .296.092.296.325v3.417zm-1.698-.252c.808 0 1.086-.784 1.086-1.456 0-.672-.277-1.466-1.085-1.466-.797 0-1.076.794-1.076 1.466 0 .672.278 1.456 1.075 1.456zM54.06 125.843c0-.214.13-.354.324-.354.204 0 .325.14.325.353v.336h.018c.148-.31.51-.69.89-.69.232 0 .362.148.362.335 0 .186-.13.308-.408.364-.39.064-.863.354-.863 1.12v1.894c0 .215-.122.346-.326.346-.194 0-.324-.13-.324-.346v-3.36zM57.92 127.776c0 .68.436 1.204 1.17 1.204.862 0 1.084-.532 1.335-.532.11 0 .232.102.232.29 0 .317-.808.81-1.578.81-1.262 0-1.81-.98-1.81-2.024 0-1.074.668-2.036 1.772-2.036 1.077 0 1.698.98 1.698 1.933 0 .234-.083.356-.362.356H57.92zm2.17-.495c0-.57-.324-1.222-1.048-1.222-.807-.028-1.095.616-1.122 1.223h2.17zM66.15 124.144c.222 0 .4.178.4.402 0 .224-.178.41-.4.41-.223 0-.4-.186-.4-.41 0-.224.177-.402.4-.402zm.324 5.06c0 .215-.12.345-.324.345-.195 0-.325-.13-.325-.346v-3.36c0-.216.13-.356.325-.356.204 0 .324.14.324.355v3.36zM68.45 125.843c0-.214.13-.354.325-.354.204 0 .325.14.325.353v.16l.02.008c.286-.372.695-.52 1.084-.52.613 0 1.373.39 1.373 1.51v2.204c0 .215-.12.346-.324.346-.195 0-.325-.13-.325-.346v-2.166c0-.7-.483-.98-.91-.98-.435 0-.918.28-.918.98v2.166c0 .215-.12.346-.325.346-.194 0-.324-.13-.324-.346v-3.36zM74.806 125.49c.54 0 1.31.288 1.31.7 0 .148-.094.27-.298.27-.28 0-.39-.402-1.012-.402-.37 0-.686.168-.686.504 0 .69 2.106.616 2.106 1.765 0 .83-.705 1.223-1.438 1.223-.835 0-1.485-.42-1.485-.757 0-.177.12-.298.26-.298.297 0 .53.485 1.243.485.474 0 .76-.26.76-.532 0-.775-2.105-.737-2.105-1.84 0-.727.688-1.12 1.346-1.12M78.165 124.677c0-.215.13-.355.325-.355.204 0 .324.14.324.355v.858h.27c.213 0 .324.103.324.28 0 .187-.11.29-.325.29h-.27v3.1c0 .214-.12.345-.323.345-.195 0-.325-.13-.325-.346v-3.1h-.27c-.213 0-.324-.102-.324-.29 0-.176.112-.28.326-.28h.27v-.857zM80.995 125.843c0-.214.13-.354.325-.354.204 0 .334.14.334.353v.336h.01c.147-.31.51-.69.89-.69.232 0 .362.148.362.335 0 .186-.13.308-.41.364-.38.064-.852.354-.852 1.12v1.894c0 .215-.13.346-.334.346-.195 0-.325-.13-.325-.346v-3.36zM84.446 125.843c0-.214.13-.354.325-.354.205 0 .326.14.326.353v2.1c0 .682.297 1.037.918 1.037.613 0 .91-.355.91-1.036v-2.1c0-.215.13-.355.324-.355.204 0 .325.14.325.353v2.13c0 1.156-.77 1.577-1.56 1.577-.797 0-1.567-.42-1.567-1.578v-2.13zM91.887 126.973c0-.56-.315-.915-.844-.915-.53 0-.844.355-.844.915v2.23c0 .216-.122.346-.326.346-.204 0-.325-.13-.325-.346v-3.36c0-.215.12-.355.324-.355.204 0 .325.14.325.353v.122l.017.01c.158-.197.4-.486.993-.486.38 0 .79.167 1.086.67.287-.42.63-.67 1.206-.67.603 0 1.373.39 1.373 1.51v2.204c0 .215-.13.345-.325.345-.204 0-.334-.13-.334-.346v-2.23c0-.56-.306-.916-.844-.916-.52 0-.835.355-.835.915v2.23c0 .216-.13.346-.325.346-.204 0-.325-.13-.325-.346v-2.23zM97.26 127.776c0 .68.427 1.204 1.17 1.204.862 0 1.084-.532 1.326-.532.12 0 .24.102.24.29 0 .317-.806.81-1.577.81-1.262 0-1.81-.98-1.81-2.024 0-1.074.668-2.036 1.772-2.036 1.077 0 1.698.98 1.698 1.933 0 .234-.083.356-.362.356H97.26zm2.17-.495c0-.57-.333-1.222-1.048-1.222-.807-.028-1.094.616-1.122 1.223h2.17zM101.815 125.843c0-.214.12-.354.325-.354.204 0 .325.14.325.353v.16l.02.008c.286-.372.694-.52 1.084-.52.61 0 1.372.39 1.372 1.51v2.204c0 .215-.12.346-.324.346-.205 0-.325-.13-.325-.346v-2.166c0-.7-.483-.98-.91-.98-.436 0-.918.28-.918.98v2.166c0 .215-.12.346-.325.346-.204 0-.325-.13-.325-.346v-3.36zM107.122 124.677c0-.215.13-.355.325-.355.204 0 .325.14.325.355v.858h.27c.212 0 .324.103.324.28 0 .187-.112.29-.325.29h-.268v3.1c0 .214-.12.345-.325.345-.195 0-.325-.13-.325-.346v-3.1h-.27c-.212 0-.323-.102-.323-.29 0-.176.11-.28.323-.28h.27v-.857zM111.214 125.49c.538 0 1.31.288 1.31.7 0 .148-.094.27-.298.27-.28 0-.39-.402-1.012-.402-.37 0-.696.168-.696.504 0 .69 2.107.616 2.107 1.765 0 .83-.706 1.223-1.438 1.223-.826 0-1.485-.42-1.485-.757 0-.177.13-.298.27-.298.287 0 .528.485 1.242.485.474 0 .76-.26.76-.532 0-.775-2.105-.737-2.105-1.84 0-.727.676-1.12 1.344-1.12" fill="#FFF"/></g></svg>
