<?xml version="1.0" encoding="utf-8"?>
<!-- Generator: Adobe Illustrator 19.2.1, SVG Export Plug-In . SVG Version: 6.00 Build 0)  -->
<svg version="1.1" id="layer" xmlns="http://www.w3.org/2000/svg" xmlns:xlink="http://www.w3.org/1999/xlink" x="0px" y="0px"
	 viewBox="0 0 652 652" style="enable-background:new 0 0 652 652;" xml:space="preserve">
<style type="text/css">
	.st0{fill:#FFFFFF;}
	.st1{fill:none;stroke:#231815;stroke-width:16.0273;}
	.st2{fill:#231815;}
</style>
<polyline class="st0" points="-7.9,263.7 319.7,72.6 648,262.2 320.5,455.2 -7.9,263.7 "/>
<polygon class="st1" points="-7.9,263.7 319.7,72.6 648,262.2 320.5,455.2 "/>
<polygon class="st1" points="-7.9,262.9 320.1,72.6 648,262.9 320.1,455.2 "/>
<path class="st2" d="M-11.5,506.9v47.6c0,6.6,1.9,12.2,9.5,12.2c7.6,0,9.5-5.6,9.5-12.2v-47.6h7v47.8c0,10.4-4.8,18-16.5,18
	c-11.7,0-16.5-7.5-16.5-18v-47.8H-11.5"/>
<polyline class="st2" points="45.4,506.9 62.1,554.7 62.3,554.7 62.3,506.9 69.3,506.9 69.3,571.7 61.8,571.7 41.6,515.3 
	41.5,515.3 41.5,571.7 34.5,571.7 34.5,506.9 45.4,506.9 "/>
<rect x="89.8" y="506.9" class="st2" width="7" height="64.8"/>
<polyline class="st2" points="120.6,506.9 132,558.3 132.2,558.3 143.6,506.9 150.6,506.9 135.4,571.7 128.9,571.7 113.6,506.9 
	120.6,506.9 "/>
<polyline class="st2" points="196.6,506.9 196.6,512.8 174,512.8 174,534.9 190.7,534.9 190.7,540.8 174,540.8 174,565.8 
	197.7,565.8 197.7,571.7 167,571.7 167,506.9 196.6,506.9 "/>
<path class="st2" d="M215.8,506.9h15.6c10.4,0,17.8,6.1,17.8,16.8c0,7.3-3.2,13.4-10.4,15.9l11,32.1h-7.4L232,541l-9.2,0.4v30.3h-7
	V506.9 M222.8,535.3h6.1c10.1,0,13.3-4,13.3-11.2c0-7.3-3.2-11.2-13.3-11.2h-6.1V535.3z"/>
<path class="st2" d="M292.8,523.6c-0.5-6.6-3.2-11.7-10-11.7c-5.4,0-8.9,3.6-8.9,8.5c0,14.6,26,14.8,26,35.6
	c0,10.3-5.9,16.5-16.6,16.5c-10.2,0-16.3-7.5-16.4-18.3h6.5c0.2,7.6,3.8,12.4,10.7,12.4c5.8,0,9.6-3.8,9.6-10.7
	c0-14.7-26-16.4-26-34.9c0-9.1,6.3-15.1,15.6-15.1c9.3,0,15.4,6.3,16,17.6H292.8"/>
<path class="st2" d="M337.4,506.9l14.3,64.8h-7l-3.9-19.2h-16.5l-3.9,19.2h-7l14.3-64.8H337.4 M325.2,546.6h14.5l-7.2-34.8h-0.2
	L325.2,546.6z"/>
<polyline class="st2" points="374.3,506.9 374.3,565.8 395.3,565.8 395.3,571.7 367.3,571.7 367.3,506.9 374.3,506.9 "/>
<path class="st2" d="M459,506.9l14.3,64.8h-7l-3.9-19.2h-16.5l-3.9,19.2h-7l14.3-64.8H459 M446.9,546.6h14.5l-7.2-34.8h-0.2
	L446.9,546.6z"/>
<path class="st2" d="M496,506.9v47.6c0,6.6,1.9,12.2,9.5,12.2c7.6,0,9.5-5.6,9.5-12.2v-47.6h7v47.8c0,10.4-4.8,18-16.5,18
	c-11.7,0-16.5-7.5-16.5-18v-47.8H496"/>
<path class="st2" d="M542.8,506.9h12c13.7,0,21.9,7.5,21.9,32.4c0,24.9-8.3,32.4-21.9,32.4h-12V506.9 M549.8,565.8h3.8
	c10.2,0,16.2-4.3,16.2-26.5c0-22.2-5.9-26.5-16.2-26.5h-3.8V565.8z"/>
<rect x="597.2" y="506.9" class="st2" width="7" height="64.8"/>
<path class="st2" d="M642.1,572.6c-11,0-18.3-9.1-18.3-33.3c0-24.1,7.4-33.3,18.3-33.3c11,0,18.3,9.2,18.3,33.3
	C660.4,563.5,653.1,572.6,642.1,572.6 M642.1,511.9c-6.3,0-11.3,5.4-11.3,27.4c0,22,5,27.4,11.3,27.4c6.3,0,11.3-5.4,11.3-27.4
	C653.4,517.3,648.4,511.9,642.1,511.9z"/>
<path class="st2" d="M388.5,291.5l156.7-8.6v-7.2L388.5,275v-81.4c0,0,0-2.8-0.1-6c0-1.9,0.1-4.3,0.1-7.2
	c0.3-55.1-47.2-51.7-48-51.6c-0.8-0.1-48.3-3.5-48,51.6c0,2.9,0,5.3,0.1,7.2c0,3.2-0.1,6-0.1,6v81.1l-10.4,0l-17.5,23.7l27.9-1.5
	V322c0,0,0,8,0,13.7c-0.1,31.3-25.1,29.3-25.7,29.2h0h0c-0.7,0.1-26,2.1-26.1-29.2c0-5.7,0-13.7,0-13.7V218.5c0,0,0-2.8-0.1-6
	c0-1.9,0.1-7.5,0.1-10.4c-0.7-48.6-57.2-31-57.2-31s34.8-1.1,34.9,30.7c0,4.1,0.1,12.7,0.2,15.4c0,0.8,0,1.3,0,1.3V322
	c0,0,0.1,3.8,0,13.2c-0.3,55.4,47.8,52,48.2,52c0.3,0,48.3,3.4,48-52c-0.1-9.3,0-13.2,0-13.2v-26.4l51.8-2.9v43.7l-0.1,0
	c0,1.9-0.1,7.5-0.1,10.4c0.7,48.6,57.2,31,57.2,31s-34.8,1.1-34.9-30.7c0-2.3,0-5.9-0.1-9.2h0V291.5 M314.6,274.7v-81.1
	c0,0,0-0.5,0-1.3c0-2.7,0.2-8.1,0.2-12.2c0.1-31.7,25.9-29.3,25.9-29.3s25.5-2.5,25.5,29.3c0,4.1,0.1,9.5,0.2,12.2
	c0,0.8,0,1.3,0,1.3v81.3L314.6,274.7z"/>
<rect x="466.8" y="229.4" class="st2" width="3.4" height="30.7"/>
<path class="st2" d="M493,229.4h3.4v30.7h-5.6l-8.6-24.6c-0.5-1.4-0.8-2.8-1.1-4.6H481c0.1,1.6,0.1,3.2,0.1,4.7v24.5h-3.4v-30.7h5.5
	l8.7,25.1c0.3,0.9,0.6,1.9,1,3.4h0.1c0-1.1-0.1-2.3-0.1-3.4V229.4"/>
<path class="st2" d="M517.2,238.7c-0.1-3.6-1.3-6.8-5.5-6.8c-5.9,0-6,8.4-6,12.5c-0.2,4.2-0.3,13.5,6,13.5c4,0,4.9-3.3,5.3-6.7
	c0.1-0.7,0.1-1.4,0.2-2.1h3.4c-0.1,0.6-0.1,1.3-0.2,1.9c-0.2,2.5-0.4,4.4-1.8,6.5c-1.6,2.2-3.7,3.4-6.7,3.4c-9.4,0-9.8-9.1-9.8-16.5
	c0-6.9,1-15.6,9.8-15.6c5.8,0,8.8,4.3,8.7,9.8H517.2"/>
<rect x="526.4" y="256" class="st2" width="3.7" height="4.1"/>
</svg>
